<mxfile host="app.diagrams.net" agent="Mozilla/5.0 (Windows NT 10.0; Win64; x64) AppleWebKit/537.36 (KHTML, like Gecko) Chrome/134.0.0.0 Safari/537.36" version="26.1.1">
  <diagram name="PÃ¡gina-1" id="SbDWB4GMXW5i23eoc5Z7">
    <mxGraphModel dx="1750" dy="928" grid="1" gridSize="10" guides="1" tooltips="1" connect="1" arrows="1" fold="1" page="1" pageScale="1" pageWidth="827" pageHeight="1169" math="0" shadow="0">
      <root>
        <mxCell id="0" />
        <mxCell id="1" parent="0" />
        <mxCell id="TS_fR1YusMpX2781dCfC-1" value="INICIO" style="strokeWidth=2;html=1;shape=mxgraph.flowchart.start_1;whiteSpace=wrap;fillColor=#d5e8d4;strokeColor=#82b366;" vertex="1" parent="1">
          <mxGeometry x="364" y="10" width="100" height="60" as="geometry" />
        </mxCell>
        <mxCell id="TS_fR1YusMpX2781dCfC-2" value="PESO" style="html=1;strokeWidth=2;shape=manualInput;whiteSpace=wrap;rounded=1;size=26;arcSize=11;fillColor=#dae8fc;strokeColor=#6c8ebf;" vertex="1" parent="1">
          <mxGeometry x="364" y="80" width="100" height="60" as="geometry" />
        </mxCell>
        <mxCell id="TS_fR1YusMpX2781dCfC-8" style="edgeStyle=orthogonalEdgeStyle;rounded=0;orthogonalLoop=1;jettySize=auto;html=1;exitX=0.5;exitY=1;exitDx=0;exitDy=0;entryX=0.5;entryY=0;entryDx=0;entryDy=0;" edge="1" parent="1" source="TS_fR1YusMpX2781dCfC-3" target="TS_fR1YusMpX2781dCfC-7">
          <mxGeometry relative="1" as="geometry" />
        </mxCell>
        <mxCell id="TS_fR1YusMpX2781dCfC-3" value="ALTURA" style="html=1;strokeWidth=2;shape=manualInput;whiteSpace=wrap;rounded=1;size=26;arcSize=11;fillColor=#dae8fc;strokeColor=#6c8ebf;" vertex="1" parent="1">
          <mxGeometry x="364" y="160" width="100" height="60" as="geometry" />
        </mxCell>
        <mxCell id="TS_fR1YusMpX2781dCfC-4" style="edgeStyle=orthogonalEdgeStyle;rounded=0;orthogonalLoop=1;jettySize=auto;html=1;exitX=0.5;exitY=1;exitDx=0;exitDy=0;exitPerimeter=0;entryX=0.5;entryY=0.167;entryDx=0;entryDy=0;entryPerimeter=0;" edge="1" parent="1" source="TS_fR1YusMpX2781dCfC-1" target="TS_fR1YusMpX2781dCfC-2">
          <mxGeometry relative="1" as="geometry" />
        </mxCell>
        <mxCell id="TS_fR1YusMpX2781dCfC-5" style="edgeStyle=orthogonalEdgeStyle;rounded=0;orthogonalLoop=1;jettySize=auto;html=1;exitX=0.5;exitY=1;exitDx=0;exitDy=0;entryX=0.5;entryY=0.167;entryDx=0;entryDy=0;entryPerimeter=0;" edge="1" parent="1" source="TS_fR1YusMpX2781dCfC-2" target="TS_fR1YusMpX2781dCfC-3">
          <mxGeometry relative="1" as="geometry" />
        </mxCell>
        <mxCell id="TS_fR1YusMpX2781dCfC-6" value="FIM" style="strokeWidth=2;html=1;shape=mxgraph.flowchart.start_1;whiteSpace=wrap;fillColor=#d5e8d4;strokeColor=#82b366;" vertex="1" parent="1">
          <mxGeometry x="364" y="1260" width="100" height="60" as="geometry" />
        </mxCell>
        <mxCell id="TS_fR1YusMpX2781dCfC-10" style="edgeStyle=orthogonalEdgeStyle;rounded=0;orthogonalLoop=1;jettySize=auto;html=1;exitX=0.5;exitY=1;exitDx=0;exitDy=0;entryX=0.5;entryY=0;entryDx=0;entryDy=0;" edge="1" parent="1" source="TS_fR1YusMpX2781dCfC-7" target="TS_fR1YusMpX2781dCfC-9">
          <mxGeometry relative="1" as="geometry" />
        </mxCell>
        <mxCell id="TS_fR1YusMpX2781dCfC-7" value="IMC = 0" style="rounded=0;whiteSpace=wrap;html=1;fillColor=#f5f5f5;fontColor=#333333;strokeColor=#666666;" vertex="1" parent="1">
          <mxGeometry x="354" y="250" width="120" height="60" as="geometry" />
        </mxCell>
        <mxCell id="TS_fR1YusMpX2781dCfC-9" value="IMC = PESO * (ALTURA * ALTURA)" style="rounded=0;whiteSpace=wrap;html=1;fillColor=#f5f5f5;fontColor=#333333;strokeColor=#666666;" vertex="1" parent="1">
          <mxGeometry x="354" y="340" width="120" height="60" as="geometry" />
        </mxCell>
        <mxCell id="TS_fR1YusMpX2781dCfC-13" value="ABAIXO" style="strokeWidth=2;html=1;shape=mxgraph.flowchart.display;whiteSpace=wrap;fillColor=#e1d5e7;strokeColor=#9673a6;" vertex="1" parent="1">
          <mxGeometry x="553" y="455" width="100" height="60" as="geometry" />
        </mxCell>
        <mxCell id="TS_fR1YusMpX2781dCfC-46" style="edgeStyle=orthogonalEdgeStyle;rounded=0;orthogonalLoop=1;jettySize=auto;html=1;exitX=1;exitY=0.5;exitDx=0;exitDy=0;exitPerimeter=0;" edge="1" parent="1" source="TS_fR1YusMpX2781dCfC-15" target="TS_fR1YusMpX2781dCfC-37">
          <mxGeometry relative="1" as="geometry" />
        </mxCell>
        <mxCell id="TS_fR1YusMpX2781dCfC-15" value="ACIMA" style="strokeWidth=2;html=1;shape=mxgraph.flowchart.display;whiteSpace=wrap;fillColor=#e1d5e7;strokeColor=#9673a6;" vertex="1" parent="1">
          <mxGeometry x="553" y="975" width="100" height="60" as="geometry" />
        </mxCell>
        <mxCell id="TS_fR1YusMpX2781dCfC-16" value="NORMAL" style="strokeWidth=2;html=1;shape=mxgraph.flowchart.display;whiteSpace=wrap;fillColor=#e1d5e7;strokeColor=#9673a6;" vertex="1" parent="1">
          <mxGeometry x="553" y="620" width="100" height="60" as="geometry" />
        </mxCell>
        <mxCell id="TS_fR1YusMpX2781dCfC-17" value="SOBREPESO" style="strokeWidth=2;html=1;shape=mxgraph.flowchart.display;whiteSpace=wrap;fillColor=#e1d5e7;strokeColor=#9673a6;" vertex="1" parent="1">
          <mxGeometry x="553" y="795" width="100" height="60" as="geometry" />
        </mxCell>
        <mxCell id="TS_fR1YusMpX2781dCfC-18" style="edgeStyle=orthogonalEdgeStyle;rounded=0;orthogonalLoop=1;jettySize=auto;html=1;exitX=1;exitY=0.5;exitDx=0;exitDy=0;exitPerimeter=0;entryX=0;entryY=0.5;entryDx=0;entryDy=0;entryPerimeter=0;" edge="1" parent="1" target="TS_fR1YusMpX2781dCfC-13">
          <mxGeometry relative="1" as="geometry">
            <mxPoint x="477" y="485" as="sourcePoint" />
          </mxGeometry>
        </mxCell>
        <mxCell id="TS_fR1YusMpX2781dCfC-19" value="S" style="edgeLabel;html=1;align=center;verticalAlign=middle;resizable=0;points=[];" vertex="1" connectable="0" parent="TS_fR1YusMpX2781dCfC-18">
          <mxGeometry x="-0.0842" y="-1" relative="1" as="geometry">
            <mxPoint as="offset" />
          </mxGeometry>
        </mxCell>
        <mxCell id="TS_fR1YusMpX2781dCfC-20" value="IMC&amp;nbsp;MAIOR QUE 18.5 E MENOR QUE 24.9" style="strokeWidth=2;html=1;shape=mxgraph.flowchart.decision;whiteSpace=wrap;fillColor=#ffe6cc;strokeColor=#d79b00;" vertex="1" parent="1">
          <mxGeometry x="351" y="585" width="126" height="130" as="geometry" />
        </mxCell>
        <mxCell id="TS_fR1YusMpX2781dCfC-21" value="IMC MENOR QUE 18.5" style="strokeWidth=2;html=1;shape=mxgraph.flowchart.decision;whiteSpace=wrap;fillColor=#ffe6cc;strokeColor=#d79b00;" vertex="1" parent="1">
          <mxGeometry x="351" y="420" width="126" height="130" as="geometry" />
        </mxCell>
        <mxCell id="TS_fR1YusMpX2781dCfC-22" style="edgeStyle=orthogonalEdgeStyle;rounded=0;orthogonalLoop=1;jettySize=auto;html=1;exitX=0.5;exitY=1;exitDx=0;exitDy=0;exitPerimeter=0;entryX=0.5;entryY=0;entryDx=0;entryDy=0;entryPerimeter=0;" edge="1" parent="1" source="TS_fR1YusMpX2781dCfC-21" target="TS_fR1YusMpX2781dCfC-20">
          <mxGeometry relative="1" as="geometry" />
        </mxCell>
        <mxCell id="TS_fR1YusMpX2781dCfC-24" value="N" style="edgeLabel;html=1;align=center;verticalAlign=middle;resizable=0;points=[];" vertex="1" connectable="0" parent="TS_fR1YusMpX2781dCfC-22">
          <mxGeometry x="-0.2" y="1" relative="1" as="geometry">
            <mxPoint as="offset" />
          </mxGeometry>
        </mxCell>
        <mxCell id="TS_fR1YusMpX2781dCfC-23" style="edgeStyle=orthogonalEdgeStyle;rounded=0;orthogonalLoop=1;jettySize=auto;html=1;exitX=0.5;exitY=1;exitDx=0;exitDy=0;entryX=0.5;entryY=0;entryDx=0;entryDy=0;entryPerimeter=0;" edge="1" parent="1" source="TS_fR1YusMpX2781dCfC-9" target="TS_fR1YusMpX2781dCfC-21">
          <mxGeometry relative="1" as="geometry" />
        </mxCell>
        <mxCell id="TS_fR1YusMpX2781dCfC-25" style="edgeStyle=orthogonalEdgeStyle;rounded=0;orthogonalLoop=1;jettySize=auto;html=1;exitX=1;exitY=0.5;exitDx=0;exitDy=0;exitPerimeter=0;entryX=0;entryY=0.5;entryDx=0;entryDy=0;entryPerimeter=0;" edge="1" parent="1" source="TS_fR1YusMpX2781dCfC-20" target="TS_fR1YusMpX2781dCfC-16">
          <mxGeometry relative="1" as="geometry" />
        </mxCell>
        <mxCell id="TS_fR1YusMpX2781dCfC-26" value="S" style="edgeLabel;html=1;align=center;verticalAlign=middle;resizable=0;points=[];" vertex="1" connectable="0" parent="TS_fR1YusMpX2781dCfC-25">
          <mxGeometry x="-0.0579" y="-2" relative="1" as="geometry">
            <mxPoint as="offset" />
          </mxGeometry>
        </mxCell>
        <mxCell id="TS_fR1YusMpX2781dCfC-27" value="IMC MAIOR QUE 25 E MENOR QUE 29.9" style="strokeWidth=2;html=1;shape=mxgraph.flowchart.decision;whiteSpace=wrap;fillColor=#ffe6cc;strokeColor=#d79b00;" vertex="1" parent="1">
          <mxGeometry x="351" y="760" width="126" height="130" as="geometry" />
        </mxCell>
        <mxCell id="TS_fR1YusMpX2781dCfC-28" style="edgeStyle=orthogonalEdgeStyle;rounded=0;orthogonalLoop=1;jettySize=auto;html=1;exitX=0.5;exitY=1;exitDx=0;exitDy=0;exitPerimeter=0;entryX=0.5;entryY=0;entryDx=0;entryDy=0;entryPerimeter=0;" edge="1" parent="1" source="TS_fR1YusMpX2781dCfC-20" target="TS_fR1YusMpX2781dCfC-27">
          <mxGeometry relative="1" as="geometry" />
        </mxCell>
        <mxCell id="TS_fR1YusMpX2781dCfC-29" value="N" style="edgeLabel;html=1;align=center;verticalAlign=middle;resizable=0;points=[];" vertex="1" connectable="0" parent="TS_fR1YusMpX2781dCfC-28">
          <mxGeometry x="-0.2356" y="-3" relative="1" as="geometry">
            <mxPoint as="offset" />
          </mxGeometry>
        </mxCell>
        <mxCell id="TS_fR1YusMpX2781dCfC-30" style="edgeStyle=orthogonalEdgeStyle;rounded=0;orthogonalLoop=1;jettySize=auto;html=1;exitX=1;exitY=0.5;exitDx=0;exitDy=0;exitPerimeter=0;entryX=0;entryY=0.5;entryDx=0;entryDy=0;entryPerimeter=0;" edge="1" parent="1" source="TS_fR1YusMpX2781dCfC-27" target="TS_fR1YusMpX2781dCfC-17">
          <mxGeometry relative="1" as="geometry" />
        </mxCell>
        <mxCell id="TS_fR1YusMpX2781dCfC-31" value="S" style="edgeLabel;html=1;align=center;verticalAlign=middle;resizable=0;points=[];" vertex="1" connectable="0" parent="TS_fR1YusMpX2781dCfC-30">
          <mxGeometry x="0.0368" y="-2" relative="1" as="geometry">
            <mxPoint as="offset" />
          </mxGeometry>
        </mxCell>
        <mxCell id="TS_fR1YusMpX2781dCfC-32" value="IMC MAIOR QUE 30 E MENOR QUE 39" style="strokeWidth=2;html=1;shape=mxgraph.flowchart.decision;whiteSpace=wrap;fillColor=#ffe6cc;strokeColor=#d79b00;" vertex="1" parent="1">
          <mxGeometry x="351" y="940" width="126" height="130" as="geometry" />
        </mxCell>
        <mxCell id="TS_fR1YusMpX2781dCfC-33" value="S" style="edgeStyle=orthogonalEdgeStyle;rounded=0;orthogonalLoop=1;jettySize=auto;html=1;exitX=1;exitY=0.5;exitDx=0;exitDy=0;exitPerimeter=0;entryX=0;entryY=0.5;entryDx=0;entryDy=0;entryPerimeter=0;" edge="1" parent="1" source="TS_fR1YusMpX2781dCfC-32" target="TS_fR1YusMpX2781dCfC-15">
          <mxGeometry relative="1" as="geometry" />
        </mxCell>
        <mxCell id="TS_fR1YusMpX2781dCfC-34" style="edgeStyle=orthogonalEdgeStyle;rounded=0;orthogonalLoop=1;jettySize=auto;html=1;exitX=0.5;exitY=1;exitDx=0;exitDy=0;exitPerimeter=0;entryX=0.5;entryY=0;entryDx=0;entryDy=0;entryPerimeter=0;" edge="1" parent="1" source="TS_fR1YusMpX2781dCfC-27" target="TS_fR1YusMpX2781dCfC-32">
          <mxGeometry relative="1" as="geometry" />
        </mxCell>
        <mxCell id="TS_fR1YusMpX2781dCfC-35" value="N" style="edgeLabel;html=1;align=center;verticalAlign=middle;resizable=0;points=[];" vertex="1" connectable="0" parent="TS_fR1YusMpX2781dCfC-34">
          <mxGeometry x="-0.1867" y="-2" relative="1" as="geometry">
            <mxPoint as="offset" />
          </mxGeometry>
        </mxCell>
        <mxCell id="TS_fR1YusMpX2781dCfC-36" value="" style="strokeWidth=2;html=1;shape=mxgraph.flowchart.start_2;whiteSpace=wrap;fillColor=#f5f5f5;gradientColor=#b3b3b3;strokeColor=#666666;" vertex="1" parent="1">
          <mxGeometry x="740" y="460" width="50" height="50" as="geometry" />
        </mxCell>
        <mxCell id="TS_fR1YusMpX2781dCfC-37" value="" style="strokeWidth=2;html=1;shape=mxgraph.flowchart.start_2;whiteSpace=wrap;fillColor=#f5f5f5;gradientColor=#b3b3b3;strokeColor=#666666;" vertex="1" parent="1">
          <mxGeometry x="740" y="980" width="50" height="50" as="geometry" />
        </mxCell>
        <mxCell id="TS_fR1YusMpX2781dCfC-45" style="edgeStyle=orthogonalEdgeStyle;rounded=0;orthogonalLoop=1;jettySize=auto;html=1;exitX=0.5;exitY=1;exitDx=0;exitDy=0;exitPerimeter=0;" edge="1" parent="1" source="TS_fR1YusMpX2781dCfC-38" target="TS_fR1YusMpX2781dCfC-37">
          <mxGeometry relative="1" as="geometry" />
        </mxCell>
        <mxCell id="TS_fR1YusMpX2781dCfC-38" value="" style="strokeWidth=2;html=1;shape=mxgraph.flowchart.start_2;whiteSpace=wrap;fillColor=#f5f5f5;gradientColor=#b3b3b3;strokeColor=#666666;" vertex="1" parent="1">
          <mxGeometry x="740" y="800" width="50" height="50" as="geometry" />
        </mxCell>
        <mxCell id="TS_fR1YusMpX2781dCfC-39" value="" style="strokeWidth=2;html=1;shape=mxgraph.flowchart.start_2;whiteSpace=wrap;fillColor=#f5f5f5;gradientColor=#b3b3b3;strokeColor=#666666;" vertex="1" parent="1">
          <mxGeometry x="740" y="625" width="50" height="50" as="geometry" />
        </mxCell>
        <mxCell id="TS_fR1YusMpX2781dCfC-40" style="edgeStyle=orthogonalEdgeStyle;rounded=0;orthogonalLoop=1;jettySize=auto;html=1;exitX=1;exitY=0.5;exitDx=0;exitDy=0;exitPerimeter=0;entryX=0;entryY=0.5;entryDx=0;entryDy=0;entryPerimeter=0;" edge="1" parent="1" source="TS_fR1YusMpX2781dCfC-13" target="TS_fR1YusMpX2781dCfC-36">
          <mxGeometry relative="1" as="geometry" />
        </mxCell>
        <mxCell id="TS_fR1YusMpX2781dCfC-41" style="edgeStyle=orthogonalEdgeStyle;rounded=0;orthogonalLoop=1;jettySize=auto;html=1;exitX=0.5;exitY=1;exitDx=0;exitDy=0;exitPerimeter=0;entryX=0.5;entryY=0;entryDx=0;entryDy=0;entryPerimeter=0;" edge="1" parent="1" source="TS_fR1YusMpX2781dCfC-36" target="TS_fR1YusMpX2781dCfC-39">
          <mxGeometry relative="1" as="geometry" />
        </mxCell>
        <mxCell id="TS_fR1YusMpX2781dCfC-42" style="edgeStyle=orthogonalEdgeStyle;rounded=0;orthogonalLoop=1;jettySize=auto;html=1;exitX=1;exitY=0.5;exitDx=0;exitDy=0;exitPerimeter=0;entryX=0;entryY=0.5;entryDx=0;entryDy=0;entryPerimeter=0;" edge="1" parent="1" source="TS_fR1YusMpX2781dCfC-16" target="TS_fR1YusMpX2781dCfC-39">
          <mxGeometry relative="1" as="geometry" />
        </mxCell>
        <mxCell id="TS_fR1YusMpX2781dCfC-43" style="edgeStyle=orthogonalEdgeStyle;rounded=0;orthogonalLoop=1;jettySize=auto;html=1;exitX=0.5;exitY=1;exitDx=0;exitDy=0;exitPerimeter=0;entryX=0.5;entryY=0;entryDx=0;entryDy=0;entryPerimeter=0;" edge="1" parent="1" source="TS_fR1YusMpX2781dCfC-39" target="TS_fR1YusMpX2781dCfC-38">
          <mxGeometry relative="1" as="geometry" />
        </mxCell>
        <mxCell id="TS_fR1YusMpX2781dCfC-44" style="edgeStyle=orthogonalEdgeStyle;rounded=0;orthogonalLoop=1;jettySize=auto;html=1;exitX=1;exitY=0.5;exitDx=0;exitDy=0;exitPerimeter=0;entryX=0;entryY=0.5;entryDx=0;entryDy=0;entryPerimeter=0;" edge="1" parent="1" source="TS_fR1YusMpX2781dCfC-17" target="TS_fR1YusMpX2781dCfC-38">
          <mxGeometry relative="1" as="geometry" />
        </mxCell>
        <mxCell id="TS_fR1YusMpX2781dCfC-47" value="" style="strokeWidth=2;html=1;shape=mxgraph.flowchart.start_2;whiteSpace=wrap;fillColor=#f5f5f5;gradientColor=#b3b3b3;strokeColor=#666666;" vertex="1" parent="1">
          <mxGeometry x="389" y="1150" width="50" height="50" as="geometry" />
        </mxCell>
        <mxCell id="TS_fR1YusMpX2781dCfC-48" style="edgeStyle=orthogonalEdgeStyle;rounded=0;orthogonalLoop=1;jettySize=auto;html=1;exitX=0.5;exitY=1;exitDx=0;exitDy=0;exitPerimeter=0;entryX=1;entryY=0.5;entryDx=0;entryDy=0;entryPerimeter=0;" edge="1" parent="1" source="TS_fR1YusMpX2781dCfC-37" target="TS_fR1YusMpX2781dCfC-47">
          <mxGeometry relative="1" as="geometry" />
        </mxCell>
        <mxCell id="TS_fR1YusMpX2781dCfC-49" style="edgeStyle=orthogonalEdgeStyle;rounded=0;orthogonalLoop=1;jettySize=auto;html=1;exitX=0.5;exitY=1;exitDx=0;exitDy=0;exitPerimeter=0;entryX=0.5;entryY=0;entryDx=0;entryDy=0;entryPerimeter=0;" edge="1" parent="1" source="TS_fR1YusMpX2781dCfC-32" target="TS_fR1YusMpX2781dCfC-47">
          <mxGeometry relative="1" as="geometry" />
        </mxCell>
        <mxCell id="TS_fR1YusMpX2781dCfC-50" style="edgeStyle=orthogonalEdgeStyle;rounded=0;orthogonalLoop=1;jettySize=auto;html=1;exitX=0.5;exitY=1;exitDx=0;exitDy=0;exitPerimeter=0;entryX=0.5;entryY=0;entryDx=0;entryDy=0;entryPerimeter=0;" edge="1" parent="1" source="TS_fR1YusMpX2781dCfC-47" target="TS_fR1YusMpX2781dCfC-6">
          <mxGeometry relative="1" as="geometry" />
        </mxCell>
      </root>
    </mxGraphModel>
  </diagram>
</mxfile>
